<svg width="838" height="729" viewBox="0 0 838 729" fill="none" xmlns="http://www.w3.org/2000/svg">
<path fill-rule="evenodd" clip-rule="evenodd" d="M325.889 729H512.11C642.884 729 708.269 729 755.239 699.216C775.569 686.321 793.029 669.753 806.617 650.458C838 605.884 838 543.83 838 419.726C838 295.626 838 233.572 806.617 188.997C793.029 169.701 775.569 153.132 755.239 140.239C725.054 121.1 687.273 114.26 629.422 111.815C601.814 111.815 578.048 91.9625 572.635 66.2726C564.51 27.738 528.858 0 487.452 0H350.548C309.14 0 273.488 27.738 265.367 66.2726C259.953 91.9625 236.184 111.815 208.578 111.815C150.728 114.26 112.944 121.1 82.7626 140.239C62.4289 153.132 44.9704 169.701 31.3839 188.997C5.72205e-06 233.572 0 295.626 0 419.726C0 543.83 5.72205e-06 605.884 31.3839 650.458C44.9704 669.753 62.4289 686.321 82.7626 699.216C129.732 729 195.118 729 325.889 729ZM419 254.046C322.58 254.046 244.417 328.224 244.417 419.726C244.417 511.231 322.58 585.407 419 585.407C515.42 585.407 593.585 511.231 593.585 419.726C593.585 328.224 515.42 254.046 419 254.046ZM419 320.319C361.149 320.319 314.25 364.824 314.25 419.726C314.25 474.628 361.149 519.137 419 519.137C476.851 519.137 523.75 474.628 523.75 419.726C523.75 364.824 476.851 320.319 419 320.319ZM616.86 287.181C616.86 268.881 632.493 254.046 651.78 254.046H698.335C717.617 254.046 733.25 268.881 733.25 287.181C733.25 305.483 717.617 320.319 698.335 320.319H651.78C632.493 320.319 616.86 305.483 616.86 287.181Z" fill="black"/>
</svg>
